<svg width="49" height="48" viewBox="0 0 49 48" fill="none" xmlns="http://www.w3.org/2000/svg">
<path d="M18.6586 13.3393L21.0762 24.5873C21.1402 24.8847 21.2621 25.1666 21.435 25.4169C21.6079 25.6673 21.8284 25.8811 22.084 26.0462C22.3395 26.2113 22.6251 26.3244 22.9244 26.3791C23.2236 26.4338 23.5308 26.429 23.8282 26.365L26.7607 25.7351L30.0305 27.8482L32.1436 24.5773L35.0761 23.9474C35.3736 23.8834 35.6555 23.7615 35.9058 23.5886C36.1562 23.4157 36.37 23.1952 36.5351 22.9396C36.7001 22.6841 36.8133 22.3985 36.868 22.0992C36.9227 21.8 36.9179 21.4928 36.8539 21.1954L34.4353 9.94744C34.3061 9.34695 33.9438 8.82233 33.4279 8.48895C32.912 8.15557 32.2848 8.04072 31.6843 8.16967L20.4363 10.5883C19.8358 10.7175 19.3112 11.0798 18.9778 11.5957C18.6445 12.1116 18.5296 12.7388 18.6586 13.3393Z" stroke="#A855F7" stroke-width="2.14898" stroke-linecap="round" stroke-linejoin="round"/>
<path d="M7.97021 37.2122L13.1488 35.1825C14.0992 34.8045 14.4285 33.9623 14.5337 33.495C14.746 32.5595 14.494 31.5387 13.8869 30.8879C13.5048 30.4745 13.3024 29.9265 13.324 29.3641C13.3455 28.8016 13.5894 28.2707 14.0019 27.8879C14.206 27.6976 14.4456 27.5497 14.7071 27.4524C14.9685 27.3552 15.2466 27.3106 15.5254 27.3213C15.8041 27.332 16.078 27.3978 16.3312 27.5148C16.5845 27.6317 16.8121 27.7977 17.0009 28.003C18.2172 29.3164 18.866 31.12 18.8333 32.9394L26.8531 29.7946C27.3773 29.5892 27.9615 29.6 28.4777 29.8247C28.9939 30.0493 29.4 30.4695 29.607 30.993C29.8108 31.5173 29.7992 32.1009 29.5747 32.6167C29.3503 33.1325 28.9312 33.5387 28.4086 33.747L26.7062 34.4166M32.1021 15.2857C32.0327 14.963 31.9004 14.657 31.7128 14.3854C31.5252 14.1137 31.2859 13.8817 31.0086 13.7025C30.7314 13.5233 30.4215 13.4005 30.0967 13.3411C29.772 13.2817 29.4387 13.2868 29.116 13.3562C28.6923 13.4474 28.2996 13.6468 27.9759 13.9349C27.6522 14.2229 27.4085 14.5899 27.2687 15C26.9726 14.6836 26.5996 14.4492 26.186 14.3196C25.7724 14.1901 25.3324 14.1699 24.9086 14.261C24.5104 14.347 24.139 14.5286 23.8265 14.79C23.514 15.0514 23.2698 15.3849 23.1148 15.7617C22.9598 16.1385 22.8986 16.5473 22.9367 16.9529C22.9748 17.3586 23.1109 17.7489 23.3332 18.0903C24.6487 20.253 28.7836 22.0486 28.7836 22.0486C28.7836 22.0486 31.8163 18.7123 32.1269 16.2004C32.1745 15.8966 32.1661 15.5866 32.1021 15.2857Z" stroke="#A855F7" stroke-width="2.14898" stroke-linecap="round" stroke-linejoin="round"/>
<path d="M23.225 39.6815C22.7011 39.7935 22.1542 39.7033 21.6941 39.4289C21.2339 39.1546 20.8945 38.7164 20.7438 38.2023C20.5932 37.6882 20.6425 37.1361 20.8819 36.6568C21.1213 36.1775 21.533 35.8064 22.0346 35.618L25.2349 34.4137C25.4959 34.3155 25.7736 34.2697 26.0523 34.2789C26.3309 34.288 26.605 34.352 26.859 34.4671C27.1129 34.5822 27.3417 34.7462 27.5322 34.9497C27.7228 35.1532 27.8714 35.3923 27.9696 35.6532C28.0677 35.9142 28.1135 36.1919 28.1044 36.4706C28.0952 36.7492 28.0312 37.0233 27.9161 37.2773C27.801 37.5312 27.637 37.76 27.4335 37.9505C27.23 38.1411 26.9909 38.2897 26.73 38.3879L23.5296 39.5922C23.4304 39.6294 23.3286 39.6592 23.225 39.6815ZM24.4661 43.742C23.9398 43.8129 23.406 43.6841 22.97 43.3807C22.534 43.0774 22.2276 42.6217 22.1111 42.1036C21.9947 41.5854 22.0766 41.0424 22.3409 40.5817C22.6051 40.121 23.0324 39.7761 23.5385 39.615L25.4601 39.0079C25.7259 38.9228 26.006 38.8911 26.284 38.9148C26.5621 38.9385 26.8328 39.017 27.0803 39.1459C27.3279 39.2747 27.5475 39.4514 27.7264 39.6655C27.9054 39.8797 28.0401 40.1272 28.1228 40.3938C28.292 40.9307 28.2411 41.5128 27.9812 42.0121C27.7213 42.5114 27.2737 42.8871 26.7369 43.0565L24.8153 43.6626C24.7014 43.699 24.5845 43.7255 24.4661 43.742Z" stroke="#A855F7" stroke-width="2.14898" stroke-linecap="round" stroke-linejoin="round"/>
<path d="M21.0029 44.8441C21.9325 44.5078 23.4255 43.6229 23.4255 43.6229" stroke="#A855F7" stroke-width="2.14898" stroke-linecap="round" stroke-linejoin="round"/>
<path d="M24.5671 45.1388C36.3469 45.1388 45.8963 35.5893 45.8963 23.8095C45.8963 12.0297 36.3469 2.48022 24.5671 2.48022C12.7872 2.48022 3.23779 12.0297 3.23779 23.8095C3.23779 35.5893 12.7872 45.1388 24.5671 45.1388Z" stroke="#A855F7" stroke-width="2.14898" stroke-linecap="round" stroke-linejoin="round"/>
</svg>
